Results
version=1
nRows=25
nColumns=23
inDegrees=yes
endheader
time	pelvis_tilt	pelvis_list	pelvis_rotation	pelvis_tx	pelvis_ty	pelvis_tz	hip_flexion_r	hip_adduction_r	hip_rotation_r	knee_angle_beta	knee_angle_r	ankle_angle_r	subtalar_angle_r	mtp_angle_r	hip_flexion_l	hip_adduction_l	hip_rotation_l	knee_angle_l_beta	knee_angle_l	ankle_angle_l	subtalar_angle_l	mtp_angle_l
      0.00500000	     -3.54161065	     14.36424425	     86.81898706	     -0.06027764	      1.02470224	     -0.29707378	    -11.91749378	    -10.73340335	     -9.04576524	     11.55929171	    -11.55929171	     17.42991818	      0.00000000	      0.00000000	    -15.33225012	     -2.44231601	     -4.66759472	     10.45564934	    -10.45564934	     16.25981323	      0.00000000	      0.00000000
      0.01000000	     -3.57803129	     14.29637628	     86.83378287	     -0.06036348	      1.02460895	     -0.29709200	    -11.84694321	    -10.76895299	     -9.03682225	     11.56546652	    -11.56546652	     17.45558516	      0.00000000	      0.00000000	    -15.23848620	     -2.40655790	     -4.62783020	     10.48537728	    -10.48537728	     16.26182071	      0.00000000	      0.00000000
      0.01500000	     -3.57791567	     14.40790892	     86.84804197	     -0.06045123	      1.02473505	     -0.29717993	    -12.02934623	    -10.76773833	     -9.02455958	     11.47317708	    -11.47317708	     17.43835473	      0.00000000	      0.00000000	    -15.37341109	     -2.39716397	     -4.61962232	     10.46567955	    -10.46567955	     16.25923875	      0.00000000	      0.00000000
      0.02000000	     -3.57521238	     14.45567352	     86.85269037	     -0.06051613	      1.02478552	     -0.29726011	    -12.12969637	    -10.76202732	     -8.99194755	     11.39924520	    -11.39924520	     17.42637202	      0.00000000	      0.00000000	    -15.42801278	     -2.39709001	     -4.63606091	     10.46734693	    -10.46734693	     16.22489879	      0.00000000	      0.00000000
      0.02500000	     -3.60766652	     14.43550892	     86.87894708	     -0.06063966	      1.02474056	     -0.29727601	    -12.11622643	    -10.79610688	     -8.98601088	     11.40089302	    -11.40089302	     17.42068181	      0.00000000	      0.00000000	    -15.39593589	     -2.36057528	     -4.57026753	     10.48083326	    -10.48083326	     16.28722241	      0.00000000	      0.00000000
      0.03000000	     -3.60985237	     14.49761595	     86.89016332	     -0.06072239	      1.02481284	     -0.29733859	    -12.22971936	    -10.79672724	     -8.96310825	     11.32946021	    -11.32946021	     17.40635686	      0.00000000	      0.00000000	    -15.46832371	     -2.35439582	     -4.57311207	     10.47469402	    -10.47469402	     16.27181876	      0.00000000	      0.00000000
      0.03500000	     -3.63262313	     14.52187802	     86.90620819	     -0.06081727	      1.02482814	     -0.29737273	    -12.28150204	    -10.81945645	     -8.94080055	     11.29756670	    -11.29756670	     17.40532831	      0.00000000	      0.00000000	    -15.49319413	     -2.32588346	     -4.54719109	     10.47335810	    -10.47335810	     16.28389964	      0.00000000	      0.00000000
      0.04000000	     -3.64429924	     14.53962923	     86.93336927	     -0.06092920	      1.02483435	     -0.29741733	    -12.33957255	    -10.82717280	     -8.93416745	     11.24457745	    -11.24457745	     17.39830265	      0.00000000	      0.00000000	    -15.50215819	     -2.31658368	     -4.53452737	     10.48604340	    -10.48604340	     16.26578209	      0.00000000	      0.00000000
      0.04500000	     -3.66991765	     14.58195581	     86.95933856	     -0.06102253	      1.02487575	     -0.29744888	    -12.41820617	    -10.85141681	     -8.93407256	     11.20261462	    -11.20261462	     17.39219972	      0.00000000	      0.00000000	    -15.53909970	     -2.28861863	     -4.52140906	     10.49891373	    -10.49891373	     16.27182355	      0.00000000	      0.00000000
      0.05000000	     -3.68487371	     14.58147166	     86.97579946	     -0.06113889	      1.02487432	     -0.29748552	    -12.43682037	    -10.86580982	     -8.90453091	     11.18130474	    -11.18130474	     17.39118975	      0.00000000	      0.00000000	    -15.53509264	     -2.27109773	     -4.50816393	     10.50429889	    -10.50429889	     16.29299595	      0.00000000	      0.00000000
      0.05500000	     -3.73598761	     14.56258287	     87.03110450	     -0.06130516	      1.02483082	     -0.29744348	    -12.42736597	    -10.91664547	     -8.93528428	     11.17871625	    -11.17871625	     17.38976076	      0.00000000	      0.00000000	    -15.48097796	     -2.22530656	     -4.44815217	     10.53706680	    -10.53706680	     16.31952931	      0.00000000	      0.00000000
      0.06000000	     -3.73422297	     14.53099161	     87.02450852	     -0.06137268	      1.02479790	     -0.29748465	    -12.39442278	    -10.91392228	     -8.88540461	     11.18027307	    -11.18027307	     17.38799978	      0.00000000	      0.00000000	    -15.43169099	     -2.22322608	     -4.46714744	     10.57629013	    -10.57629013	     16.32251087	      0.00000000	      0.00000000
      0.06500000	     -3.74033855	     14.60601693	     87.04102486	     -0.06143863	      1.02487082	     -0.29750266	    -12.51851980	    -10.91492926	     -8.85957271	     11.11550664	    -11.11550664	     17.38958308	      0.00000000	      0.00000000	    -15.51875278	     -2.21571441	     -4.46835110	     10.56427879	    -10.56427879	     16.31303393	      0.00000000	      0.00000000
      0.07000000	     -3.76941933	     14.41636297	     87.02055307	     -0.06149118	      1.02463534	     -0.29744995	    -12.26526363	    -10.94436510	     -8.74174680	     11.17969381	    -11.17969381	     17.45926410	      0.00000000	      0.00000000	    -15.27705823	     -2.18509292	     -4.47694834	     10.62015361	    -10.62015361	     16.28446179	      0.00000000	      0.00000000
      0.07500000	     -3.77978980	     14.63204567	     87.09326304	     -0.06162813	      1.02488976	     -0.29749114	    -12.57896838	    -10.95183717	     -8.87006845	     11.07976717	    -11.07976717	     17.37707319	      0.00000000	      0.00000000	    -15.52390753	     -2.17763855	     -4.43875669	     10.59109642	    -10.59109642	     16.33656597	      0.00000000	      0.00000000
      0.08000000	     -3.76982827	     14.62654229	     87.10817706	     -0.06170340	      1.02488605	     -0.29742809	    -12.57964004	    -10.93732950	     -8.85263064	     11.06951821	    -11.06951821	     17.37929012	      0.00000000	      0.00000000	    -15.48963861	     -2.19372406	     -4.44810990	     10.62678739	    -10.62678739	     16.32680159	      0.00000000	      0.00000000
      0.08500000	     -3.80657361	     14.61602406	     87.12941966	     -0.06179482	      1.02486605	     -0.29740077	    -12.56993313	    -10.97602700	     -8.85843895	     11.07156266	    -11.07156266	     17.37299976	      0.00000000	      0.00000000	    -15.46089962	     -2.15484637	     -4.42704979	     10.65060208	    -10.65060208	     16.36390188	      0.00000000	      0.00000000
      0.09000000	     -3.81399911	     14.64821506	     87.14807538	     -0.06186282	      1.02490581	     -0.29737634	    -12.62427854	    -10.98098396	     -8.86505232	     11.04433627	    -11.04433627	     17.37529221	      0.00000000	      0.00000000	    -15.49042887	     -2.14696781	     -4.42809833	     10.65086739	    -10.65086739	     16.34759346	      0.00000000	      0.00000000
      0.09500000	     -3.80772158	     14.72524467	     87.15379315	     -0.06189952	      1.02499241	     -0.29734556	    -12.73447706	    -10.97373827	     -8.85658600	     10.99744687	    -10.99744687	     17.36646839	      0.00000000	      0.00000000	    -15.57736241	     -2.15223322	     -4.46350118	     10.63987598	    -10.63987598	     16.31664034	      0.00000000	      0.00000000
      0.10000000	     -3.82502655	     14.67665421	     87.18002867	     -0.06197095	      1.02494248	     -0.29722741	    -12.66408530	    -10.98753905	     -8.85862936	     11.02755348	    -11.02755348	     17.37346081	      0.00000000	      0.00000000	    -15.48801013	     -2.14307930	     -4.44578442	     10.68444750	    -10.68444750	     16.34475141	      0.00000000	      0.00000000
      0.10500000	     -3.83441929	     14.46577082	     87.17251231	     -0.06202158	      1.02467416	     -0.29708411	    -12.36317281	    -10.99447930	     -8.80168946	     11.12933166	    -11.12933166	     17.37876084	      0.00000000	      0.00000000	    -15.20803190	     -2.14186312	     -4.42682409	     10.76255258	    -10.76255258	     16.34438009	      0.00000000	      0.00000000
      0.11000000	     -3.82674980	     14.70491531	     87.19048070	     -0.06203599	      1.02497257	     -0.29708081	    -12.68921206	    -10.98880705	     -8.84561145	     11.02327775	    -11.02327775	     17.36138897	      0.00000000	      0.00000000	    -15.50122937	     -2.14238099	     -4.47109161	     10.69392493	    -10.69392493	     16.31230222	      0.00000000	      0.00000000
      0.11500000	     -3.84954475	     14.61410368	     87.21996857	     -0.06211678	      1.02486145	     -0.29692509	    -12.55924203	    -11.00873044	     -8.87036854	     11.07480967	    -11.07480967	     17.37309279	      0.00000000	      0.00000000	    -15.34561615	     -2.13040182	     -4.44357720	     10.77437629	    -10.77437629	     16.34410832	      0.00000000	      0.00000000
      0.12000000	     -3.83994533	     14.66645042	     87.22881865	     -0.06213147	      1.02492010	     -0.29685651	    -12.62660623	    -10.99702839	     -8.87499448	     11.05408635	    -11.05408635	     17.37236723	      0.00000000	      0.00000000	    -15.39650893	     -2.14322733	     -4.47426151	     10.77494934	    -10.77494934	     16.33703305	      0.00000000	      0.00000000
      0.12500000	     -3.83606229	     14.63276404	     87.23739950	     -0.06213020	      1.02489798	     -0.29673819	    -12.58055255	    -10.98563654	     -8.86630530	     11.05812713	    -11.05812713	     17.34369166	      0.00000000	      0.00000000	    -15.32751031	     -2.15736656	     -4.50698954	     10.82669150	    -10.82669150	     16.30700505	      0.00000000	      0.00000000
